<mxfile host="app.diagrams.net" modified="2024-05-11T10:33:25.859Z" agent="Mozilla/5.0 (Windows NT 10.0; Win64; x64) AppleWebKit/537.36 (KHTML, like Gecko) Chrome/120.0.0.0 Safari/537.36 Edg/120.0.0.0" version="24.4.0" etag="0zl3bLOqcljwc_wQVtRH" type="github">
  <diagram name="第 1 页" id="e3vipngLk7RbF7_b5FAK">
    <mxGraphModel>
      <root>
        <mxCell id="0" />
        <mxCell id="1" parent="0" />
      </root>
    </mxGraphModel>
  </diagram>
</mxfile>
